<?xml version="1.0" encoding="utf-8" standalone="no"?>
<!DOCTYPE svg PUBLIC "-//W3C//DTD SVG 1.1//EN"
  "http://www.w3.org/Graphics/SVG/1.1/DTD/svg11.dtd">
<!-- Created with matplotlib (https://matplotlib.org/) -->
<svg height="345.6pt" version="1.1" viewBox="0 0 460.8 345.6" width="460.8pt" xmlns="http://www.w3.org/2000/svg" xmlns:xlink="http://www.w3.org/1999/xlink">
 <defs>
  <style type="text/css">
*{stroke-linecap:butt;stroke-linejoin:round;}
  </style>
 </defs>
 <g id="figure_1">
  <g id="patch_1">
   <path d="M 0 345.6 
L 460.8 345.6 
L 460.8 0 
L 0 0 
z
" style="fill:#ffffff;"/>
  </g>
  <g id="axes_1">
   <g id="patch_2">
    <path d="M 57.6 307.584 
L 414.72 307.584 
L 414.72 41.472 
L 57.6 41.472 
z
" style="fill:#ffffff;"/>
   </g>
   <g id="matplotlib.axis_1">
    <g id="xtick_1">
     <g id="line2d_1">
      <path clip-path="url(#p9315b9d4bd)" d="M 73.832727 307.584 
L 73.832727 41.472 
" style="fill:none;stroke:#b0b0b0;stroke-linecap:square;stroke-width:0.8;"/>
     </g>
     <g id="line2d_2">
      <defs>
       <path d="M 0 0 
L 0 3.5 
" id="m45cc8e0279" style="stroke:#000000;stroke-width:0.8;"/>
      </defs>
      <g>
       <use style="stroke:#000000;stroke-width:0.8;" x="73.832727" xlink:href="#m45cc8e0279" y="307.584"/>
      </g>
     </g>
     <g id="text_1">
      <!-- 0 -->
      <defs>
       <path d="M 31.78125 66.40625 
Q 24.171875 66.40625 20.328125 58.90625 
Q 16.5 51.421875 16.5 36.375 
Q 16.5 21.390625 20.328125 13.890625 
Q 24.171875 6.390625 31.78125 6.390625 
Q 39.453125 6.390625 43.28125 13.890625 
Q 47.125 21.390625 47.125 36.375 
Q 47.125 51.421875 43.28125 58.90625 
Q 39.453125 66.40625 31.78125 66.40625 
z
M 31.78125 74.21875 
Q 44.046875 74.21875 50.515625 64.515625 
Q 56.984375 54.828125 56.984375 36.375 
Q 56.984375 17.96875 50.515625 8.265625 
Q 44.046875 -1.421875 31.78125 -1.421875 
Q 19.53125 -1.421875 13.0625 8.265625 
Q 6.59375 17.96875 6.59375 36.375 
Q 6.59375 54.828125 13.0625 64.515625 
Q 19.53125 74.21875 31.78125 74.21875 
z
" id="DejaVuSans-48"/>
      </defs>
      <g transform="translate(70.651477 322.182437)scale(0.1 -0.1)">
       <use xlink:href="#DejaVuSans-48"/>
      </g>
     </g>
    </g>
    <g id="xtick_2">
     <g id="line2d_3">
      <path clip-path="url(#p9315b9d4bd)" d="M 114.516254 307.584 
L 114.516254 41.472 
" style="fill:none;stroke:#b0b0b0;stroke-linecap:square;stroke-width:0.8;"/>
     </g>
     <g id="line2d_4">
      <g>
       <use style="stroke:#000000;stroke-width:0.8;" x="114.516254" xlink:href="#m45cc8e0279" y="307.584"/>
      </g>
     </g>
     <g id="text_2">
      <!-- 50 -->
      <defs>
       <path d="M 10.796875 72.90625 
L 49.515625 72.90625 
L 49.515625 64.59375 
L 19.828125 64.59375 
L 19.828125 46.734375 
Q 21.96875 47.46875 24.109375 47.828125 
Q 26.265625 48.1875 28.421875 48.1875 
Q 40.625 48.1875 47.75 41.5 
Q 54.890625 34.8125 54.890625 23.390625 
Q 54.890625 11.625 47.5625 5.09375 
Q 40.234375 -1.421875 26.90625 -1.421875 
Q 22.3125 -1.421875 17.546875 -0.640625 
Q 12.796875 0.140625 7.71875 1.703125 
L 7.71875 11.625 
Q 12.109375 9.234375 16.796875 8.0625 
Q 21.484375 6.890625 26.703125 6.890625 
Q 35.15625 6.890625 40.078125 11.328125 
Q 45.015625 15.765625 45.015625 23.390625 
Q 45.015625 31 40.078125 35.4375 
Q 35.15625 39.890625 26.703125 39.890625 
Q 22.75 39.890625 18.8125 39.015625 
Q 14.890625 38.140625 10.796875 36.28125 
z
" id="DejaVuSans-53"/>
      </defs>
      <g transform="translate(108.153754 322.182437)scale(0.1 -0.1)">
       <use xlink:href="#DejaVuSans-53"/>
       <use x="63.623047" xlink:href="#DejaVuSans-48"/>
      </g>
     </g>
    </g>
    <g id="xtick_3">
     <g id="line2d_5">
      <path clip-path="url(#p9315b9d4bd)" d="M 155.199781 307.584 
L 155.199781 41.472 
" style="fill:none;stroke:#b0b0b0;stroke-linecap:square;stroke-width:0.8;"/>
     </g>
     <g id="line2d_6">
      <g>
       <use style="stroke:#000000;stroke-width:0.8;" x="155.199781" xlink:href="#m45cc8e0279" y="307.584"/>
      </g>
     </g>
     <g id="text_3">
      <!-- 100 -->
      <defs>
       <path d="M 12.40625 8.296875 
L 28.515625 8.296875 
L 28.515625 63.921875 
L 10.984375 60.40625 
L 10.984375 69.390625 
L 28.421875 72.90625 
L 38.28125 72.90625 
L 38.28125 8.296875 
L 54.390625 8.296875 
L 54.390625 0 
L 12.40625 0 
z
" id="DejaVuSans-49"/>
      </defs>
      <g transform="translate(145.656031 322.182437)scale(0.1 -0.1)">
       <use xlink:href="#DejaVuSans-49"/>
       <use x="63.623047" xlink:href="#DejaVuSans-48"/>
       <use x="127.246094" xlink:href="#DejaVuSans-48"/>
      </g>
     </g>
    </g>
    <g id="xtick_4">
     <g id="line2d_7">
      <path clip-path="url(#p9315b9d4bd)" d="M 195.883308 307.584 
L 195.883308 41.472 
" style="fill:none;stroke:#b0b0b0;stroke-linecap:square;stroke-width:0.8;"/>
     </g>
     <g id="line2d_8">
      <g>
       <use style="stroke:#000000;stroke-width:0.8;" x="195.883308" xlink:href="#m45cc8e0279" y="307.584"/>
      </g>
     </g>
     <g id="text_4">
      <!-- 150 -->
      <g transform="translate(186.339558 322.182437)scale(0.1 -0.1)">
       <use xlink:href="#DejaVuSans-49"/>
       <use x="63.623047" xlink:href="#DejaVuSans-53"/>
       <use x="127.246094" xlink:href="#DejaVuSans-48"/>
      </g>
     </g>
    </g>
    <g id="xtick_5">
     <g id="line2d_9">
      <path clip-path="url(#p9315b9d4bd)" d="M 236.566835 307.584 
L 236.566835 41.472 
" style="fill:none;stroke:#b0b0b0;stroke-linecap:square;stroke-width:0.8;"/>
     </g>
     <g id="line2d_10">
      <g>
       <use style="stroke:#000000;stroke-width:0.8;" x="236.566835" xlink:href="#m45cc8e0279" y="307.584"/>
      </g>
     </g>
     <g id="text_5">
      <!-- 200 -->
      <defs>
       <path d="M 19.1875 8.296875 
L 53.609375 8.296875 
L 53.609375 0 
L 7.328125 0 
L 7.328125 8.296875 
Q 12.9375 14.109375 22.625 23.890625 
Q 32.328125 33.6875 34.8125 36.53125 
Q 39.546875 41.84375 41.421875 45.53125 
Q 43.3125 49.21875 43.3125 52.78125 
Q 43.3125 58.59375 39.234375 62.25 
Q 35.15625 65.921875 28.609375 65.921875 
Q 23.96875 65.921875 18.8125 64.3125 
Q 13.671875 62.703125 7.8125 59.421875 
L 7.8125 69.390625 
Q 13.765625 71.78125 18.9375 73 
Q 24.125 74.21875 28.421875 74.21875 
Q 39.75 74.21875 46.484375 68.546875 
Q 53.21875 62.890625 53.21875 53.421875 
Q 53.21875 48.921875 51.53125 44.890625 
Q 49.859375 40.875 45.40625 35.40625 
Q 44.1875 33.984375 37.640625 27.21875 
Q 31.109375 20.453125 19.1875 8.296875 
z
" id="DejaVuSans-50"/>
      </defs>
      <g transform="translate(227.023085 322.182437)scale(0.1 -0.1)">
       <use xlink:href="#DejaVuSans-50"/>
       <use x="63.623047" xlink:href="#DejaVuSans-48"/>
       <use x="127.246094" xlink:href="#DejaVuSans-48"/>
      </g>
     </g>
    </g>
    <g id="xtick_6">
     <g id="line2d_11">
      <path clip-path="url(#p9315b9d4bd)" d="M 277.250362 307.584 
L 277.250362 41.472 
" style="fill:none;stroke:#b0b0b0;stroke-linecap:square;stroke-width:0.8;"/>
     </g>
     <g id="line2d_12">
      <g>
       <use style="stroke:#000000;stroke-width:0.8;" x="277.250362" xlink:href="#m45cc8e0279" y="307.584"/>
      </g>
     </g>
     <g id="text_6">
      <!-- 250 -->
      <g transform="translate(267.706612 322.182437)scale(0.1 -0.1)">
       <use xlink:href="#DejaVuSans-50"/>
       <use x="63.623047" xlink:href="#DejaVuSans-53"/>
       <use x="127.246094" xlink:href="#DejaVuSans-48"/>
      </g>
     </g>
    </g>
    <g id="xtick_7">
     <g id="line2d_13">
      <path clip-path="url(#p9315b9d4bd)" d="M 317.933889 307.584 
L 317.933889 41.472 
" style="fill:none;stroke:#b0b0b0;stroke-linecap:square;stroke-width:0.8;"/>
     </g>
     <g id="line2d_14">
      <g>
       <use style="stroke:#000000;stroke-width:0.8;" x="317.933889" xlink:href="#m45cc8e0279" y="307.584"/>
      </g>
     </g>
     <g id="text_7">
      <!-- 300 -->
      <defs>
       <path d="M 40.578125 39.3125 
Q 47.65625 37.796875 51.625 33 
Q 55.609375 28.21875 55.609375 21.1875 
Q 55.609375 10.40625 48.1875 4.484375 
Q 40.765625 -1.421875 27.09375 -1.421875 
Q 22.515625 -1.421875 17.65625 -0.515625 
Q 12.796875 0.390625 7.625 2.203125 
L 7.625 11.71875 
Q 11.71875 9.328125 16.59375 8.109375 
Q 21.484375 6.890625 26.8125 6.890625 
Q 36.078125 6.890625 40.9375 10.546875 
Q 45.796875 14.203125 45.796875 21.1875 
Q 45.796875 27.640625 41.28125 31.265625 
Q 36.765625 34.90625 28.71875 34.90625 
L 20.21875 34.90625 
L 20.21875 43.015625 
L 29.109375 43.015625 
Q 36.375 43.015625 40.234375 45.921875 
Q 44.09375 48.828125 44.09375 54.296875 
Q 44.09375 59.90625 40.109375 62.90625 
Q 36.140625 65.921875 28.71875 65.921875 
Q 24.65625 65.921875 20.015625 65.03125 
Q 15.375 64.15625 9.8125 62.3125 
L 9.8125 71.09375 
Q 15.4375 72.65625 20.34375 73.4375 
Q 25.25 74.21875 29.59375 74.21875 
Q 40.828125 74.21875 47.359375 69.109375 
Q 53.90625 64.015625 53.90625 55.328125 
Q 53.90625 49.265625 50.4375 45.09375 
Q 46.96875 40.921875 40.578125 39.3125 
z
" id="DejaVuSans-51"/>
      </defs>
      <g transform="translate(308.390139 322.182437)scale(0.1 -0.1)">
       <use xlink:href="#DejaVuSans-51"/>
       <use x="63.623047" xlink:href="#DejaVuSans-48"/>
       <use x="127.246094" xlink:href="#DejaVuSans-48"/>
      </g>
     </g>
    </g>
    <g id="xtick_8">
     <g id="line2d_15">
      <path clip-path="url(#p9315b9d4bd)" d="M 358.617416 307.584 
L 358.617416 41.472 
" style="fill:none;stroke:#b0b0b0;stroke-linecap:square;stroke-width:0.8;"/>
     </g>
     <g id="line2d_16">
      <g>
       <use style="stroke:#000000;stroke-width:0.8;" x="358.617416" xlink:href="#m45cc8e0279" y="307.584"/>
      </g>
     </g>
     <g id="text_8">
      <!-- 350 -->
      <g transform="translate(349.073666 322.182437)scale(0.1 -0.1)">
       <use xlink:href="#DejaVuSans-51"/>
       <use x="63.623047" xlink:href="#DejaVuSans-53"/>
       <use x="127.246094" xlink:href="#DejaVuSans-48"/>
      </g>
     </g>
    </g>
    <g id="xtick_9">
     <g id="line2d_17">
      <path clip-path="url(#p9315b9d4bd)" d="M 399.300943 307.584 
L 399.300943 41.472 
" style="fill:none;stroke:#b0b0b0;stroke-linecap:square;stroke-width:0.8;"/>
     </g>
     <g id="line2d_18">
      <g>
       <use style="stroke:#000000;stroke-width:0.8;" x="399.300943" xlink:href="#m45cc8e0279" y="307.584"/>
      </g>
     </g>
     <g id="text_9">
      <!-- 400 -->
      <defs>
       <path d="M 37.796875 64.3125 
L 12.890625 25.390625 
L 37.796875 25.390625 
z
M 35.203125 72.90625 
L 47.609375 72.90625 
L 47.609375 25.390625 
L 58.015625 25.390625 
L 58.015625 17.1875 
L 47.609375 17.1875 
L 47.609375 0 
L 37.796875 0 
L 37.796875 17.1875 
L 4.890625 17.1875 
L 4.890625 26.703125 
z
" id="DejaVuSans-52"/>
      </defs>
      <g transform="translate(389.757193 322.182437)scale(0.1 -0.1)">
       <use xlink:href="#DejaVuSans-52"/>
       <use x="63.623047" xlink:href="#DejaVuSans-48"/>
       <use x="127.246094" xlink:href="#DejaVuSans-48"/>
      </g>
     </g>
    </g>
    <g id="text_10">
     <!-- Generations -->
     <defs>
      <path d="M 59.515625 10.40625 
L 59.515625 29.984375 
L 43.40625 29.984375 
L 43.40625 38.09375 
L 69.28125 38.09375 
L 69.28125 6.78125 
Q 63.578125 2.734375 56.6875 0.65625 
Q 49.8125 -1.421875 42 -1.421875 
Q 24.90625 -1.421875 15.25 8.5625 
Q 5.609375 18.5625 5.609375 36.375 
Q 5.609375 54.25 15.25 64.234375 
Q 24.90625 74.21875 42 74.21875 
Q 49.125 74.21875 55.546875 72.453125 
Q 61.96875 70.703125 67.390625 67.28125 
L 67.390625 56.78125 
Q 61.921875 61.421875 55.765625 63.765625 
Q 49.609375 66.109375 42.828125 66.109375 
Q 29.4375 66.109375 22.71875 58.640625 
Q 16.015625 51.171875 16.015625 36.375 
Q 16.015625 21.625 22.71875 14.15625 
Q 29.4375 6.6875 42.828125 6.6875 
Q 48.046875 6.6875 52.140625 7.59375 
Q 56.25 8.5 59.515625 10.40625 
z
" id="DejaVuSans-71"/>
      <path d="M 56.203125 29.59375 
L 56.203125 25.203125 
L 14.890625 25.203125 
Q 15.484375 15.921875 20.484375 11.0625 
Q 25.484375 6.203125 34.421875 6.203125 
Q 39.59375 6.203125 44.453125 7.46875 
Q 49.3125 8.734375 54.109375 11.28125 
L 54.109375 2.78125 
Q 49.265625 0.734375 44.1875 -0.34375 
Q 39.109375 -1.421875 33.890625 -1.421875 
Q 20.796875 -1.421875 13.15625 6.1875 
Q 5.515625 13.8125 5.515625 26.8125 
Q 5.515625 40.234375 12.765625 48.109375 
Q 20.015625 56 32.328125 56 
Q 43.359375 56 49.78125 48.890625 
Q 56.203125 41.796875 56.203125 29.59375 
z
M 47.21875 32.234375 
Q 47.125 39.59375 43.09375 43.984375 
Q 39.0625 48.390625 32.421875 48.390625 
Q 24.90625 48.390625 20.390625 44.140625 
Q 15.875 39.890625 15.1875 32.171875 
z
" id="DejaVuSans-101"/>
      <path d="M 54.890625 33.015625 
L 54.890625 0 
L 45.90625 0 
L 45.90625 32.71875 
Q 45.90625 40.484375 42.875 44.328125 
Q 39.84375 48.1875 33.796875 48.1875 
Q 26.515625 48.1875 22.3125 43.546875 
Q 18.109375 38.921875 18.109375 30.90625 
L 18.109375 0 
L 9.078125 0 
L 9.078125 54.6875 
L 18.109375 54.6875 
L 18.109375 46.1875 
Q 21.34375 51.125 25.703125 53.5625 
Q 30.078125 56 35.796875 56 
Q 45.21875 56 50.046875 50.171875 
Q 54.890625 44.34375 54.890625 33.015625 
z
" id="DejaVuSans-110"/>
      <path d="M 41.109375 46.296875 
Q 39.59375 47.171875 37.8125 47.578125 
Q 36.03125 48 33.890625 48 
Q 26.265625 48 22.1875 43.046875 
Q 18.109375 38.09375 18.109375 28.8125 
L 18.109375 0 
L 9.078125 0 
L 9.078125 54.6875 
L 18.109375 54.6875 
L 18.109375 46.1875 
Q 20.953125 51.171875 25.484375 53.578125 
Q 30.03125 56 36.53125 56 
Q 37.453125 56 38.578125 55.875 
Q 39.703125 55.765625 41.0625 55.515625 
z
" id="DejaVuSans-114"/>
      <path d="M 34.28125 27.484375 
Q 23.390625 27.484375 19.1875 25 
Q 14.984375 22.515625 14.984375 16.5 
Q 14.984375 11.71875 18.140625 8.90625 
Q 21.296875 6.109375 26.703125 6.109375 
Q 34.1875 6.109375 38.703125 11.40625 
Q 43.21875 16.703125 43.21875 25.484375 
L 43.21875 27.484375 
z
M 52.203125 31.203125 
L 52.203125 0 
L 43.21875 0 
L 43.21875 8.296875 
Q 40.140625 3.328125 35.546875 0.953125 
Q 30.953125 -1.421875 24.3125 -1.421875 
Q 15.921875 -1.421875 10.953125 3.296875 
Q 6 8.015625 6 15.921875 
Q 6 25.140625 12.171875 29.828125 
Q 18.359375 34.515625 30.609375 34.515625 
L 43.21875 34.515625 
L 43.21875 35.40625 
Q 43.21875 41.609375 39.140625 45 
Q 35.0625 48.390625 27.6875 48.390625 
Q 23 48.390625 18.546875 47.265625 
Q 14.109375 46.140625 10.015625 43.890625 
L 10.015625 52.203125 
Q 14.9375 54.109375 19.578125 55.046875 
Q 24.21875 56 28.609375 56 
Q 40.484375 56 46.34375 49.84375 
Q 52.203125 43.703125 52.203125 31.203125 
z
" id="DejaVuSans-97"/>
      <path d="M 18.3125 70.21875 
L 18.3125 54.6875 
L 36.8125 54.6875 
L 36.8125 47.703125 
L 18.3125 47.703125 
L 18.3125 18.015625 
Q 18.3125 11.328125 20.140625 9.421875 
Q 21.96875 7.515625 27.59375 7.515625 
L 36.8125 7.515625 
L 36.8125 0 
L 27.59375 0 
Q 17.1875 0 13.234375 3.875 
Q 9.28125 7.765625 9.28125 18.015625 
L 9.28125 47.703125 
L 2.6875 47.703125 
L 2.6875 54.6875 
L 9.28125 54.6875 
L 9.28125 70.21875 
z
" id="DejaVuSans-116"/>
      <path d="M 9.421875 54.6875 
L 18.40625 54.6875 
L 18.40625 0 
L 9.421875 0 
z
M 9.421875 75.984375 
L 18.40625 75.984375 
L 18.40625 64.59375 
L 9.421875 64.59375 
z
" id="DejaVuSans-105"/>
      <path d="M 30.609375 48.390625 
Q 23.390625 48.390625 19.1875 42.75 
Q 14.984375 37.109375 14.984375 27.296875 
Q 14.984375 17.484375 19.15625 11.84375 
Q 23.34375 6.203125 30.609375 6.203125 
Q 37.796875 6.203125 41.984375 11.859375 
Q 46.1875 17.53125 46.1875 27.296875 
Q 46.1875 37.015625 41.984375 42.703125 
Q 37.796875 48.390625 30.609375 48.390625 
z
M 30.609375 56 
Q 42.328125 56 49.015625 48.375 
Q 55.71875 40.765625 55.71875 27.296875 
Q 55.71875 13.875 49.015625 6.21875 
Q 42.328125 -1.421875 30.609375 -1.421875 
Q 18.84375 -1.421875 12.171875 6.21875 
Q 5.515625 13.875 5.515625 27.296875 
Q 5.515625 40.765625 12.171875 48.375 
Q 18.84375 56 30.609375 56 
z
" id="DejaVuSans-111"/>
      <path d="M 44.28125 53.078125 
L 44.28125 44.578125 
Q 40.484375 46.53125 36.375 47.5 
Q 32.28125 48.484375 27.875 48.484375 
Q 21.1875 48.484375 17.84375 46.4375 
Q 14.5 44.390625 14.5 40.28125 
Q 14.5 37.15625 16.890625 35.375 
Q 19.28125 33.59375 26.515625 31.984375 
L 29.59375 31.296875 
Q 39.15625 29.25 43.1875 25.515625 
Q 47.21875 21.78125 47.21875 15.09375 
Q 47.21875 7.46875 41.1875 3.015625 
Q 35.15625 -1.421875 24.609375 -1.421875 
Q 20.21875 -1.421875 15.453125 -0.5625 
Q 10.6875 0.296875 5.421875 2 
L 5.421875 11.28125 
Q 10.40625 8.6875 15.234375 7.390625 
Q 20.0625 6.109375 24.8125 6.109375 
Q 31.15625 6.109375 34.5625 8.28125 
Q 37.984375 10.453125 37.984375 14.40625 
Q 37.984375 18.0625 35.515625 20.015625 
Q 33.0625 21.96875 24.703125 23.78125 
L 21.578125 24.515625 
Q 13.234375 26.265625 9.515625 29.90625 
Q 5.8125 33.546875 5.8125 39.890625 
Q 5.8125 47.609375 11.28125 51.796875 
Q 16.75 56 26.8125 56 
Q 31.78125 56 36.171875 55.265625 
Q 40.578125 54.546875 44.28125 53.078125 
z
" id="DejaVuSans-115"/>
     </defs>
     <g transform="translate(205.662344 335.860562)scale(0.1 -0.1)">
      <use xlink:href="#DejaVuSans-71"/>
      <use x="77.490234" xlink:href="#DejaVuSans-101"/>
      <use x="139.013672" xlink:href="#DejaVuSans-110"/>
      <use x="202.392578" xlink:href="#DejaVuSans-101"/>
      <use x="263.916016" xlink:href="#DejaVuSans-114"/>
      <use x="305.029297" xlink:href="#DejaVuSans-97"/>
      <use x="366.308594" xlink:href="#DejaVuSans-116"/>
      <use x="405.517578" xlink:href="#DejaVuSans-105"/>
      <use x="433.300781" xlink:href="#DejaVuSans-111"/>
      <use x="494.482422" xlink:href="#DejaVuSans-110"/>
      <use x="557.861328" xlink:href="#DejaVuSans-115"/>
     </g>
    </g>
   </g>
   <g id="matplotlib.axis_2">
    <g id="ytick_1">
     <g id="line2d_19">
      <path clip-path="url(#p9315b9d4bd)" d="M 57.6 295.042869 
L 414.72 295.042869 
" style="fill:none;stroke:#b0b0b0;stroke-linecap:square;stroke-width:0.8;"/>
     </g>
     <g id="line2d_20">
      <defs>
       <path d="M 0 0 
L -3.5 0 
" id="mc3d1bbf18e" style="stroke:#000000;stroke-width:0.8;"/>
      </defs>
      <g>
       <use style="stroke:#000000;stroke-width:0.8;" x="57.6" xlink:href="#mc3d1bbf18e" y="295.042869"/>
      </g>
     </g>
     <g id="text_11">
      <!-- 10 -->
      <g transform="translate(37.875 298.842088)scale(0.1 -0.1)">
       <use xlink:href="#DejaVuSans-49"/>
       <use x="63.623047" xlink:href="#DejaVuSans-48"/>
      </g>
     </g>
    </g>
    <g id="ytick_2">
     <g id="line2d_21">
      <path clip-path="url(#p9315b9d4bd)" d="M 57.6 262.062886 
L 414.72 262.062886 
" style="fill:none;stroke:#b0b0b0;stroke-linecap:square;stroke-width:0.8;"/>
     </g>
     <g id="line2d_22">
      <g>
       <use style="stroke:#000000;stroke-width:0.8;" x="57.6" xlink:href="#mc3d1bbf18e" y="262.062886"/>
      </g>
     </g>
     <g id="text_12">
      <!-- 20 -->
      <g transform="translate(37.875 265.862104)scale(0.1 -0.1)">
       <use xlink:href="#DejaVuSans-50"/>
       <use x="63.623047" xlink:href="#DejaVuSans-48"/>
      </g>
     </g>
    </g>
    <g id="ytick_3">
     <g id="line2d_23">
      <path clip-path="url(#p9315b9d4bd)" d="M 57.6 229.082902 
L 414.72 229.082902 
" style="fill:none;stroke:#b0b0b0;stroke-linecap:square;stroke-width:0.8;"/>
     </g>
     <g id="line2d_24">
      <g>
       <use style="stroke:#000000;stroke-width:0.8;" x="57.6" xlink:href="#mc3d1bbf18e" y="229.082902"/>
      </g>
     </g>
     <g id="text_13">
      <!-- 30 -->
      <g transform="translate(37.875 232.88212)scale(0.1 -0.1)">
       <use xlink:href="#DejaVuSans-51"/>
       <use x="63.623047" xlink:href="#DejaVuSans-48"/>
      </g>
     </g>
    </g>
    <g id="ytick_4">
     <g id="line2d_25">
      <path clip-path="url(#p9315b9d4bd)" d="M 57.6 196.102918 
L 414.72 196.102918 
" style="fill:none;stroke:#b0b0b0;stroke-linecap:square;stroke-width:0.8;"/>
     </g>
     <g id="line2d_26">
      <g>
       <use style="stroke:#000000;stroke-width:0.8;" x="57.6" xlink:href="#mc3d1bbf18e" y="196.102918"/>
      </g>
     </g>
     <g id="text_14">
      <!-- 40 -->
      <g transform="translate(37.875 199.902137)scale(0.1 -0.1)">
       <use xlink:href="#DejaVuSans-52"/>
       <use x="63.623047" xlink:href="#DejaVuSans-48"/>
      </g>
     </g>
    </g>
    <g id="ytick_5">
     <g id="line2d_27">
      <path clip-path="url(#p9315b9d4bd)" d="M 57.6 163.122934 
L 414.72 163.122934 
" style="fill:none;stroke:#b0b0b0;stroke-linecap:square;stroke-width:0.8;"/>
     </g>
     <g id="line2d_28">
      <g>
       <use style="stroke:#000000;stroke-width:0.8;" x="57.6" xlink:href="#mc3d1bbf18e" y="163.122934"/>
      </g>
     </g>
     <g id="text_15">
      <!-- 50 -->
      <g transform="translate(37.875 166.922153)scale(0.1 -0.1)">
       <use xlink:href="#DejaVuSans-53"/>
       <use x="63.623047" xlink:href="#DejaVuSans-48"/>
      </g>
     </g>
    </g>
    <g id="ytick_6">
     <g id="line2d_29">
      <path clip-path="url(#p9315b9d4bd)" d="M 57.6 130.14295 
L 414.72 130.14295 
" style="fill:none;stroke:#b0b0b0;stroke-linecap:square;stroke-width:0.8;"/>
     </g>
     <g id="line2d_30">
      <g>
       <use style="stroke:#000000;stroke-width:0.8;" x="57.6" xlink:href="#mc3d1bbf18e" y="130.14295"/>
      </g>
     </g>
     <g id="text_16">
      <!-- 60 -->
      <defs>
       <path d="M 33.015625 40.375 
Q 26.375 40.375 22.484375 35.828125 
Q 18.609375 31.296875 18.609375 23.390625 
Q 18.609375 15.53125 22.484375 10.953125 
Q 26.375 6.390625 33.015625 6.390625 
Q 39.65625 6.390625 43.53125 10.953125 
Q 47.40625 15.53125 47.40625 23.390625 
Q 47.40625 31.296875 43.53125 35.828125 
Q 39.65625 40.375 33.015625 40.375 
z
M 52.59375 71.296875 
L 52.59375 62.3125 
Q 48.875 64.0625 45.09375 64.984375 
Q 41.3125 65.921875 37.59375 65.921875 
Q 27.828125 65.921875 22.671875 59.328125 
Q 17.53125 52.734375 16.796875 39.40625 
Q 19.671875 43.65625 24.015625 45.921875 
Q 28.375 48.1875 33.59375 48.1875 
Q 44.578125 48.1875 50.953125 41.515625 
Q 57.328125 34.859375 57.328125 23.390625 
Q 57.328125 12.15625 50.6875 5.359375 
Q 44.046875 -1.421875 33.015625 -1.421875 
Q 20.359375 -1.421875 13.671875 8.265625 
Q 6.984375 17.96875 6.984375 36.375 
Q 6.984375 53.65625 15.1875 63.9375 
Q 23.390625 74.21875 37.203125 74.21875 
Q 40.921875 74.21875 44.703125 73.484375 
Q 48.484375 72.75 52.59375 71.296875 
z
" id="DejaVuSans-54"/>
      </defs>
      <g transform="translate(37.875 133.942169)scale(0.1 -0.1)">
       <use xlink:href="#DejaVuSans-54"/>
       <use x="63.623047" xlink:href="#DejaVuSans-48"/>
      </g>
     </g>
    </g>
    <g id="ytick_7">
     <g id="line2d_31">
      <path clip-path="url(#p9315b9d4bd)" d="M 57.6 97.162966 
L 414.72 97.162966 
" style="fill:none;stroke:#b0b0b0;stroke-linecap:square;stroke-width:0.8;"/>
     </g>
     <g id="line2d_32">
      <g>
       <use style="stroke:#000000;stroke-width:0.8;" x="57.6" xlink:href="#mc3d1bbf18e" y="97.162966"/>
      </g>
     </g>
     <g id="text_17">
      <!-- 70 -->
      <defs>
       <path d="M 8.203125 72.90625 
L 55.078125 72.90625 
L 55.078125 68.703125 
L 28.609375 0 
L 18.3125 0 
L 43.21875 64.59375 
L 8.203125 64.59375 
z
" id="DejaVuSans-55"/>
      </defs>
      <g transform="translate(37.875 100.962185)scale(0.1 -0.1)">
       <use xlink:href="#DejaVuSans-55"/>
       <use x="63.623047" xlink:href="#DejaVuSans-48"/>
      </g>
     </g>
    </g>
    <g id="ytick_8">
     <g id="line2d_33">
      <path clip-path="url(#p9315b9d4bd)" d="M 57.6 64.182982 
L 414.72 64.182982 
" style="fill:none;stroke:#b0b0b0;stroke-linecap:square;stroke-width:0.8;"/>
     </g>
     <g id="line2d_34">
      <g>
       <use style="stroke:#000000;stroke-width:0.8;" x="57.6" xlink:href="#mc3d1bbf18e" y="64.182982"/>
      </g>
     </g>
     <g id="text_18">
      <!-- 80 -->
      <defs>
       <path d="M 31.78125 34.625 
Q 24.75 34.625 20.71875 30.859375 
Q 16.703125 27.09375 16.703125 20.515625 
Q 16.703125 13.921875 20.71875 10.15625 
Q 24.75 6.390625 31.78125 6.390625 
Q 38.8125 6.390625 42.859375 10.171875 
Q 46.921875 13.96875 46.921875 20.515625 
Q 46.921875 27.09375 42.890625 30.859375 
Q 38.875 34.625 31.78125 34.625 
z
M 21.921875 38.8125 
Q 15.578125 40.375 12.03125 44.71875 
Q 8.5 49.078125 8.5 55.328125 
Q 8.5 64.0625 14.71875 69.140625 
Q 20.953125 74.21875 31.78125 74.21875 
Q 42.671875 74.21875 48.875 69.140625 
Q 55.078125 64.0625 55.078125 55.328125 
Q 55.078125 49.078125 51.53125 44.71875 
Q 48 40.375 41.703125 38.8125 
Q 48.828125 37.15625 52.796875 32.3125 
Q 56.78125 27.484375 56.78125 20.515625 
Q 56.78125 9.90625 50.3125 4.234375 
Q 43.84375 -1.421875 31.78125 -1.421875 
Q 19.734375 -1.421875 13.25 4.234375 
Q 6.78125 9.90625 6.78125 20.515625 
Q 6.78125 27.484375 10.78125 32.3125 
Q 14.796875 37.15625 21.921875 38.8125 
z
M 18.3125 54.390625 
Q 18.3125 48.734375 21.84375 45.5625 
Q 25.390625 42.390625 31.78125 42.390625 
Q 38.140625 42.390625 41.71875 45.5625 
Q 45.3125 48.734375 45.3125 54.390625 
Q 45.3125 60.0625 41.71875 63.234375 
Q 38.140625 66.40625 31.78125 66.40625 
Q 25.390625 66.40625 21.84375 63.234375 
Q 18.3125 60.0625 18.3125 54.390625 
z
" id="DejaVuSans-56"/>
      </defs>
      <g transform="translate(37.875 67.982201)scale(0.1 -0.1)">
       <use xlink:href="#DejaVuSans-56"/>
       <use x="63.623047" xlink:href="#DejaVuSans-48"/>
      </g>
     </g>
    </g>
    <g id="text_19">
     <!-- Fitness -->
     <defs>
      <path d="M 9.8125 72.90625 
L 51.703125 72.90625 
L 51.703125 64.59375 
L 19.671875 64.59375 
L 19.671875 43.109375 
L 48.578125 43.109375 
L 48.578125 34.8125 
L 19.671875 34.8125 
L 19.671875 0 
L 9.8125 0 
z
" id="DejaVuSans-70"/>
     </defs>
     <g transform="translate(31.795312 192.202219)rotate(-90)scale(0.1 -0.1)">
      <use xlink:href="#DejaVuSans-70"/>
      <use x="57.410156" xlink:href="#DejaVuSans-105"/>
      <use x="85.193359" xlink:href="#DejaVuSans-116"/>
      <use x="124.402344" xlink:href="#DejaVuSans-110"/>
      <use x="187.78125" xlink:href="#DejaVuSans-101"/>
      <use x="249.304688" xlink:href="#DejaVuSans-115"/>
      <use x="301.404297" xlink:href="#DejaVuSans-115"/>
     </g>
    </g>
   </g>
   <g id="line2d_35">
    <path clip-path="url(#p9315b9d4bd)" d="M 73.832727 257.352795 
L 74.646398 221.662103 
L 75.460068 199.842402 
L 76.273739 182.328068 
L 77.087409 171.291934 
L 77.90108 164.386013 
L 78.714751 155.643598 
L 79.528421 150.80285 
L 80.342092 148.846778 
L 81.155762 142.617582 
L 82.783103 139.849418 
L 83.596774 133.548514 
L 84.410444 129.869193 
L 85.224115 130.096683 
L 86.037785 125.804839 
L 86.851456 125.698962 
L 87.665126 123.453924 
L 88.478797 123.051481 
L 89.292468 120.634376 
L 90.106138 119.017154 
L 90.919809 119.380651 
L 91.733479 119.315906 
L 92.54715 120.847889 
L 93.36082 117.374535 
L 94.174491 116.688901 
L 94.988161 117.271732 
L 95.801832 116.976372 
L 96.615502 117.871481 
L 97.429173 116.893176 
L 99.056514 119.516513 
L 99.870185 118.369624 
L 100.683855 117.931822 
L 101.497526 115.974841 
L 102.311196 115.038794 
L 103.938537 113.872249 
L 104.752208 112.30365 
L 105.565878 113.422864 
L 106.379549 115.613483 
L 107.193219 115.703101 
L 108.00689 115.094235 
L 108.82056 115.844528 
L 109.634231 114.809904 
L 110.447902 116.349358 
L 111.261572 115.084297 
L 112.075243 116.412619 
L 112.888913 117.516413 
L 113.702584 116.298167 
L 114.516254 117.955665 
L 115.329925 115.09654 
L 116.143595 115.962731 
L 116.957266 115.590999 
L 117.770936 115.849146 
L 118.584607 114.03765 
L 119.398278 114.922794 
L 120.211948 114.518247 
L 121.025619 113.498549 
L 121.839289 113.332342 
L 122.65296 112.626331 
L 123.46663 113.020283 
L 124.280301 113.646156 
L 125.093971 113.85907 
L 125.907642 114.904166 
L 126.721312 113.912595 
L 127.534983 114.032926 
L 128.348653 113.195716 
L 129.162324 113.710347 
L 129.975995 111.311777 
L 130.789665 114.839937 
L 131.603336 114.860338 
L 132.417006 115.530822 
L 133.230677 114.33794 
L 134.044347 114.420445 
L 134.858018 115.398922 
L 135.671688 113.652773 
L 136.485359 114.686994 
L 138.1127 111.874218 
L 138.92637 111.823678 
L 139.740041 111.315081 
L 140.553712 111.134005 
L 141.367382 114.456817 
L 142.181053 114.862708 
L 142.994723 114.571693 
L 143.808394 112.546902 
L 144.622064 113.111701 
L 145.435735 112.605435 
L 146.249405 113.032387 
L 147.063076 112.455256 
L 147.876746 113.938896 
L 148.690417 113.9795 
L 149.504087 111.079647 
L 150.317758 111.044956 
L 151.131429 113.31495 
L 151.945099 111.78484 
L 152.75877 113.323433 
L 153.57244 116.28127 
L 154.386111 113.28754 
L 155.199781 113.047098 
L 156.013452 112.440065 
L 156.827122 114.07038 
L 157.640793 114.450559 
L 158.454463 116.463283 
L 159.268134 113.240303 
L 160.081805 116.213027 
L 160.895475 116.613771 
L 161.709146 114.635612 
L 162.522816 115.901203 
L 163.336487 115.07577 
L 164.150157 115.604176 
L 165.777498 117.073484 
L 166.591169 116.055248 
L 167.404839 114.751352 
L 168.21851 115.790997 
L 169.03218 116.352059 
L 169.845851 116.463008 
L 170.659522 114.47483 
L 171.473192 116.701785 
L 172.286863 118.391231 
L 173.100533 117.178897 
L 173.914204 118.205243 
L 174.727874 117.353004 
L 176.355215 116.474075 
L 177.168886 117.651161 
L 177.982556 116.297504 
L 178.796227 115.454664 
L 179.609897 117.258006 
L 180.423568 114.742257 
L 181.237239 116.033887 
L 182.050909 115.899598 
L 182.86458 115.061112 
L 183.67825 114.618228 
L 184.491921 116.494619 
L 185.305591 116.906332 
L 186.119262 115.772528 
L 186.932932 120.106324 
L 187.746603 117.189145 
L 188.560273 120.909776 
L 189.373944 119.404759 
L 191.001285 115.746594 
L 191.814956 116.617892 
L 192.628626 118.125855 
L 193.442297 115.513856 
L 194.255967 119.146437 
L 195.069638 116.362659 
L 195.883308 115.810879 
L 196.696979 116.493157 
L 197.510649 114.58041 
L 198.32432 117.465822 
L 199.13799 117.987546 
L 199.951661 119.884392 
L 200.765332 119.464603 
L 201.579002 120.057237 
L 202.392673 118.097952 
L 203.206343 117.990075 
L 204.020014 117.048861 
L 204.833684 116.667114 
L 205.647355 118.121947 
L 206.461025 118.068129 
L 207.274696 120.132989 
L 208.088366 116.247781 
L 209.715707 118.134417 
L 210.529378 118.085691 
L 211.343049 117.341696 
L 212.156719 117.342761 
L 212.97039 119.710708 
L 213.78406 116.690736 
L 214.597731 117.2183 
L 215.411401 117.33547 
L 216.225072 116.762483 
L 217.038742 117.772635 
L 217.852413 119.069352 
L 218.666083 116.504782 
L 219.479754 115.609263 
L 220.293424 115.260153 
L 221.107095 117.501106 
L 221.920766 117.361682 
L 222.734436 115.853962 
L 223.548107 116.835583 
L 224.361777 117.389846 
L 225.175448 116.484442 
L 225.989118 117.676799 
L 226.802789 114.297557 
L 227.616459 113.905717 
L 228.43013 114.115764 
L 229.2438 117.383322 
L 230.057471 117.074445 
L 230.871141 115.484585 
L 231.684812 115.951024 
L 232.498483 115.064469 
L 233.312153 116.646477 
L 234.125824 117.163975 
L 234.939494 117.162634 
L 235.753165 119.154757 
L 236.566835 118.744454 
L 237.380506 119.314404 
L 239.007847 118.318866 
L 239.821517 116.286541 
L 240.635188 118.980474 
L 241.448859 116.400955 
L 242.262529 116.164247 
L 243.0762 113.453113 
L 243.88987 113.360173 
L 244.703541 114.423476 
L 245.517211 113.666175 
L 246.330882 113.346216 
L 247.144552 115.916748 
L 247.958223 115.954143 
L 248.771893 117.204383 
L 249.585564 115.206372 
L 250.399234 116.929258 
L 251.212905 116.063256 
L 252.026576 117.664579 
L 252.840246 117.58077 
L 253.653917 118.743342 
L 254.467587 118.239069 
L 255.281258 117.477282 
L 256.094928 116.531138 
L 256.908599 114.751685 
L 257.722269 113.657153 
L 258.53594 116.229617 
L 259.34961 115.122079 
L 260.163281 116.072816 
L 260.976951 116.461148 
L 261.790622 116.720669 
L 262.604293 117.336731 
L 263.417963 118.491824 
L 264.231634 118.22991 
L 265.858975 121.633992 
L 266.672645 121.372587 
L 267.486316 120.523766 
L 268.299986 121.578162 
L 269.113657 119.516662 
L 270.740998 119.782384 
L 271.554668 121.404219 
L 272.368339 117.990837 
L 273.18201 119.778861 
L 273.99568 116.367284 
L 274.809351 117.787295 
L 275.623021 118.201429 
L 276.436692 118.831197 
L 277.250362 118.531907 
L 278.064033 118.981026 
L 278.877703 118.563747 
L 279.691374 118.366099 
L 280.505044 120.568214 
L 281.318715 120.918742 
L 282.946056 119.987086 
L 283.759727 124.78652 
L 284.573397 121.025626 
L 285.387068 121.741177 
L 286.200738 120.438185 
L 287.014409 118.451844 
L 287.828079 120.105381 
L 288.64175 117.860399 
L 289.45542 119.184118 
L 290.269091 116.010676 
L 291.082761 115.727206 
L 293.523773 113.731811 
L 294.337444 114.530192 
L 295.151114 113.418597 
L 295.964785 113.969234 
L 296.778455 113.023535 
L 297.592126 115.505299 
L 298.405796 113.376803 
L 299.219467 114.303972 
L 300.846808 114.264844 
L 301.660478 117.819359 
L 302.474149 116.33848 
L 303.28782 115.643423 
L 304.10149 114.377159 
L 304.915161 115.963021 
L 305.728831 115.747358 
L 306.542502 112.995272 
L 307.356172 115.485549 
L 308.169843 116.135474 
L 308.983513 114.27223 
L 309.797184 116.512922 
L 310.610854 115.263939 
L 311.424525 115.056443 
L 312.238195 115.639884 
L 313.051866 113.851901 
L 313.865537 115.80693 
L 314.679207 115.196727 
L 315.492878 118.302166 
L 316.306548 117.540015 
L 317.120219 119.446342 
L 317.933889 117.256247 
L 318.74756 117.54852 
L 319.56123 118.01444 
L 320.374901 118.878657 
L 321.188571 119.17967 
L 322.002242 118.332799 
L 322.815913 121.136812 
L 323.629583 119.993032 
L 325.256924 120.641091 
L 326.070595 118.754097 
L 326.884265 121.034275 
L 327.697936 119.077457 
L 328.511606 119.974534 
L 329.325277 122.057669 
L 330.138947 118.812861 
L 330.952618 116.791569 
L 331.766288 115.842421 
L 332.579959 115.077717 
L 333.39363 117.067317 
L 334.2073 113.942487 
L 335.834641 115.386831 
L 336.648312 115.612968 
L 337.461982 116.656256 
L 338.275653 116.441452 
L 339.089323 120.068918 
L 339.902994 116.246559 
L 340.716664 117.421769 
L 341.530335 115.348821 
L 342.344005 118.249501 
L 343.157676 119.29505 
L 343.971347 119.285017 
L 344.785017 121.283704 
L 345.598688 120.134158 
L 346.412358 120.44744 
L 347.226029 115.883593 
L 348.039699 116.539851 
L 349.66704 118.863627 
L 350.480711 118.226234 
L 351.294381 117.327127 
L 352.108052 115.348945 
L 352.921722 115.446976 
L 353.735393 116.630413 
L 354.549064 116.346076 
L 355.362734 116.960421 
L 356.176405 118.657136 
L 356.990075 119.992469 
L 357.803746 122.471158 
L 358.617416 121.745951 
L 359.431087 123.261905 
L 360.244757 120.475209 
L 361.058428 117.057983 
L 361.872098 117.67617 
L 362.685769 119.606015 
L 363.49944 116.942381 
L 364.31311 115.003514 
L 365.126781 120.777232 
L 366.754122 117.735481 
L 367.567792 120.919858 
L 368.381463 121.482987 
L 369.195133 119.549828 
L 370.008804 120.950466 
L 370.822474 120.316814 
L 371.636145 121.933552 
L 372.449815 121.374734 
L 373.263486 121.969364 
L 374.077157 117.476216 
L 374.890827 120.998348 
L 375.704498 118.13206 
L 376.518168 118.198443 
L 377.331839 118.620709 
L 378.145509 120.522376 
L 378.95918 119.008746 
L 379.77285 117.869602 
L 380.586521 119.707539 
L 381.400191 117.961705 
L 383.027532 121.244714 
L 383.841203 119.414362 
L 384.654874 119.940609 
L 385.468544 119.067229 
L 386.282215 116.833533 
L 387.095885 116.58778 
L 387.909556 117.784539 
L 388.723226 113.99114 
L 389.536897 114.75162 
L 390.350567 114.424663 
L 391.164238 116.536671 
L 391.977908 116.264269 
L 392.791579 114.522945 
L 393.605249 117.524871 
L 394.41892 115.774353 
L 395.232591 117.98446 
L 396.046261 114.865225 
L 396.859932 119.778124 
L 397.673602 120.34534 
L 398.487273 119.633602 
L 398.487273 119.633602 
" style="fill:none;stroke:#0000ff;stroke-linecap:square;stroke-width:1.5;"/>
   </g>
   <g id="line2d_36">
    <path clip-path="url(#p9315b9d4bd)" d="M 73.832727 295.488 
L 74.646398 256.196455 
L 75.460068 230.871426 
L 76.273739 210.9574 
L 77.087409 196.724361 
L 77.90108 190.656272 
L 78.714751 180.490781 
L 79.528421 175.171065 
L 80.342092 174.361501 
L 81.155762 167.934103 
L 81.969433 167.573233 
L 82.783103 167.062168 
L 83.596774 157.986597 
L 84.410444 153.543749 
L 85.224115 154.972541 
L 86.037785 150.746747 
L 86.851456 150.640494 
L 87.665126 147.499571 
L 88.478797 147.264841 
L 89.292468 144.007297 
L 90.106138 141.342684 
L 90.919809 142.166196 
L 91.733479 143.666115 
L 92.54715 145.490907 
L 93.36082 139.587489 
L 94.174491 139.863628 
L 94.988161 140.705969 
L 95.801832 141.229526 
L 96.615502 142.064539 
L 97.429173 141.040585 
L 98.242843 144.51922 
L 99.056514 145.003975 
L 99.870185 145.339067 
L 101.497526 139.581414 
L 102.311196 138.54377 
L 103.124867 137.146931 
L 103.938537 136.257499 
L 104.752208 134.436186 
L 105.565878 137.699436 
L 106.379549 140.255127 
L 107.193219 140.229077 
L 108.00689 139.07632 
L 108.82056 140.013253 
L 109.634231 137.963107 
L 110.447902 140.424053 
L 111.261572 138.678704 
L 112.075243 140.73523 
L 112.888913 141.586176 
L 113.702584 140.058213 
L 114.516254 141.732429 
L 115.329925 137.840743 
L 116.143595 139.544424 
L 116.957266 139.379055 
L 117.770936 139.60928 
L 118.584607 136.491041 
L 119.398278 139.572292 
L 120.211948 139.252858 
L 121.839289 137.497968 
L 122.65296 136.981426 
L 123.46663 137.427031 
L 124.280301 138.585766 
L 125.093971 138.567967 
L 125.907642 140.305514 
L 126.721312 138.865876 
L 127.534983 139.123864 
L 128.348653 136.519637 
L 129.162324 139.609177 
L 129.975995 136.253563 
L 130.789665 138.845988 
L 131.603336 140.54073 
L 132.417006 139.781982 
L 133.230677 139.455869 
L 134.044347 137.973576 
L 134.858018 141.287053 
L 135.671688 138.58342 
L 136.485359 137.928048 
L 137.299029 137.522046 
L 138.1127 135.518581 
L 138.92637 135.355617 
L 139.740041 134.826273 
L 140.553712 134.122351 
L 141.367382 139.582349 
L 142.181053 140.382827 
L 142.994723 139.387053 
L 143.808394 136.430054 
L 144.622064 137.13091 
L 145.435735 137.123755 
L 146.249405 136.254807 
L 147.063076 137.101022 
L 147.876746 138.569199 
L 148.690417 138.969381 
L 149.504087 133.485801 
L 150.317758 132.166915 
L 151.131429 136.235938 
L 151.945099 134.075265 
L 152.75877 137.982964 
L 153.57244 142.88934 
L 154.386111 137.234074 
L 155.199781 137.943319 
L 156.013452 135.622097 
L 156.827122 138.851294 
L 157.640793 138.685877 
L 158.454463 143.192468 
L 159.268134 137.345987 
L 160.081805 141.533509 
L 160.895475 141.369882 
L 161.709146 138.31966 
L 162.522816 141.285498 
L 163.336487 141.868861 
L 164.150157 141.132935 
L 164.963828 141.419512 
L 165.777498 142.828528 
L 166.591169 142.987119 
L 167.404839 139.395371 
L 168.21851 141.317951 
L 169.03218 142.036173 
L 169.845851 143.220002 
L 170.659522 139.218309 
L 171.473192 144.244845 
L 172.286863 146.740729 
L 173.100533 143.08078 
L 173.914204 145.158916 
L 174.727874 144.145703 
L 175.541545 141.674854 
L 177.168886 145.276578 
L 177.982556 141.957579 
L 178.796227 141.590463 
L 179.609897 142.897052 
L 180.423568 139.660193 
L 181.237239 141.56955 
L 182.050909 140.759479 
L 182.86458 140.156849 
L 183.67825 137.803715 
L 184.491921 141.339843 
L 185.305591 142.772031 
L 186.119262 138.379512 
L 186.932932 147.293927 
L 187.746603 141.776072 
L 188.560273 146.771106 
L 190.187614 144.148784 
L 191.001285 140.621653 
L 191.814956 142.932361 
L 192.628626 144.146324 
L 193.442297 141.546365 
L 194.255967 145.889311 
L 195.069638 142.708581 
L 195.883308 142.302758 
L 196.696979 142.184689 
L 197.510649 137.190057 
L 198.32432 142.692546 
L 199.13799 143.870878 
L 199.951661 145.946259 
L 200.765332 147.62216 
L 201.579002 147.689929 
L 202.392673 145.484421 
L 203.206343 144.936304 
L 204.020014 141.931016 
L 204.833684 141.8356 
L 205.647355 144.455352 
L 206.461025 145.414243 
L 207.274696 148.242499 
L 208.088366 141.397311 
L 208.902037 142.11794 
L 209.715707 144.148623 
L 210.529378 144.757812 
L 211.343049 144.39968 
L 212.156719 143.343208 
L 212.97039 146.088996 
L 213.78406 142.601614 
L 214.597731 142.942697 
L 215.411401 141.681937 
L 216.225072 142.561508 
L 217.038742 142.160122 
L 217.852413 145.576413 
L 218.666083 141.954057 
L 219.479754 141.797769 
L 220.293424 141.229479 
L 221.107095 144.219485 
L 221.920766 143.503833 
L 222.734436 141.252117 
L 223.548107 142.57875 
L 224.361777 143.242104 
L 225.175448 144.073109 
L 225.989118 144.66428 
L 226.802789 138.675588 
L 227.616459 138.351556 
L 228.43013 139.549816 
L 229.2438 145.468843 
L 230.057471 144.480389 
L 230.871141 140.392526 
L 231.684812 142.395575 
L 232.498483 139.342112 
L 233.312153 139.11579 
L 234.125824 143.365914 
L 234.939494 141.108339 
L 235.753165 144.445276 
L 236.566835 143.83379 
L 237.380506 145.428115 
L 238.194176 145.262963 
L 239.007847 145.28312 
L 239.821517 140.470999 
L 240.635188 145.324688 
L 241.448859 142.617508 
L 242.262529 142.13766 
L 243.0762 137.405084 
L 243.88987 137.415676 
L 244.703541 140.173503 
L 245.517211 139.772918 
L 246.330882 137.132222 
L 247.144552 141.053182 
L 247.958223 140.569002 
L 248.771893 143.75938 
L 249.585564 140.094978 
L 250.399234 143.530351 
L 251.212905 142.399167 
L 252.840246 144.886267 
L 253.653917 145.525536 
L 254.467587 144.764609 
L 255.281258 141.998425 
L 256.094928 142.541944 
L 256.908599 141.360752 
L 257.722269 137.437332 
L 258.53594 143.30227 
L 259.34961 140.084036 
L 260.163281 142.376149 
L 260.976951 142.614132 
L 261.790622 142.337941 
L 262.604293 143.338981 
L 263.417963 143.974035 
L 265.045304 147.266695 
L 265.858975 150.619004 
L 266.672645 148.314147 
L 267.486316 146.349432 
L 268.299986 148.526016 
L 269.113657 148.15922 
L 270.740998 146.099445 
L 271.554668 149.54651 
L 272.368339 145.203353 
L 273.18201 146.652718 
L 273.99568 140.718729 
L 274.809351 143.908511 
L 275.623021 143.779871 
L 276.436692 146.257933 
L 277.250362 144.70292 
L 278.064033 144.441818 
L 278.877703 143.19208 
L 279.691374 144.386055 
L 280.505044 146.16713 
L 281.318715 147.333989 
L 282.132386 145.943616 
L 282.946056 144.98612 
L 283.759727 154.299429 
L 284.573397 147.643556 
L 285.387068 149.329409 
L 286.200738 147.550932 
L 287.014409 145.043799 
L 287.828079 148.608652 
L 288.64175 142.686824 
L 289.45542 146.365736 
L 290.269091 140.780574 
L 291.082761 141.356455 
L 291.896432 142.665478 
L 292.710103 139.317041 
L 293.523773 138.498834 
L 294.337444 138.615272 
L 295.151114 137.525073 
L 295.964785 137.075403 
L 296.778455 137.448323 
L 297.592126 139.826365 
L 298.405796 137.904332 
L 299.219467 140.053649 
L 300.033137 137.218576 
L 300.846808 139.369011 
L 301.660478 144.631377 
L 302.474149 141.743359 
L 303.28782 141.44333 
L 304.10149 136.405295 
L 304.915161 142.279021 
L 305.728831 140.546914 
L 306.542502 137.372682 
L 307.356172 140.851123 
L 308.169843 141.361678 
L 308.983513 136.760485 
L 309.797184 141.285223 
L 310.610854 139.925907 
L 311.424525 139.454842 
L 312.238195 141.284216 
L 313.051866 136.867997 
L 313.865537 140.861028 
L 314.679207 139.816037 
L 315.492878 145.060357 
L 316.306548 143.818261 
L 317.120219 145.82494 
L 317.933889 143.025134 
L 318.74756 141.746895 
L 319.56123 142.444928 
L 320.374901 144.898875 
L 321.188571 145.856869 
L 322.002242 142.467172 
L 322.815913 148.217617 
L 323.629583 145.808629 
L 324.443254 146.212892 
L 325.256924 147.587269 
L 326.070595 144.260658 
L 326.884265 146.405912 
L 327.697936 143.326466 
L 328.511606 145.568349 
L 329.325277 149.655353 
L 330.138947 144.211158 
L 330.952618 141.127471 
L 331.766288 140.079512 
L 332.579959 139.214232 
L 333.39363 144.03319 
L 334.2073 138.622259 
L 335.020971 138.405936 
L 335.834641 140.202232 
L 336.648312 140.270278 
L 337.461982 142.262002 
L 338.275653 143.622399 
L 339.089323 148.549811 
L 339.902994 142.889299 
L 340.716664 145.421572 
L 341.530335 141.082659 
L 342.344005 144.799465 
L 343.157676 146.986667 
L 343.971347 147.23504 
L 344.785017 149.126173 
L 345.598688 147.599632 
L 346.412358 150.235372 
L 347.226029 142.146804 
L 348.039699 143.026443 
L 348.85337 144.269113 
L 349.66704 145.857242 
L 350.480711 144.794931 
L 351.294381 142.830866 
L 352.108052 139.605128 
L 352.921722 140.460126 
L 353.735393 142.174717 
L 354.549064 142.505364 
L 355.362734 141.859359 
L 356.176405 144.638912 
L 356.990075 145.275052 
L 357.803746 150.5906 
L 358.617416 148.372349 
L 359.431087 150.795539 
L 361.058428 141.562406 
L 361.872098 143.238319 
L 362.685769 147.902364 
L 363.49944 141.136932 
L 364.31311 140.242517 
L 365.126781 147.119432 
L 365.940451 144.28645 
L 366.754122 142.340077 
L 367.567792 148.840041 
L 368.381463 147.932258 
L 369.195133 145.014054 
L 370.008804 148.237747 
L 370.822474 146.008268 
L 371.636145 149.170716 
L 372.449815 148.00138 
L 373.263486 147.694736 
L 374.077157 140.932209 
L 374.890827 147.948457 
L 375.704498 142.988474 
L 376.518168 144.02709 
L 377.331839 143.576127 
L 378.145509 148.024195 
L 378.95918 144.354546 
L 379.77285 141.635516 
L 380.586521 144.720313 
L 381.400191 143.696915 
L 382.213862 145.572613 
L 383.027532 146.58252 
L 383.841203 144.956423 
L 384.654874 145.462269 
L 385.468544 146.161612 
L 386.282215 141.282369 
L 387.095885 142.869844 
L 387.909556 144.094678 
L 388.723226 137.451914 
L 389.536897 138.971967 
L 390.350567 138.993093 
L 391.164238 142.442269 
L 391.977908 142.632418 
L 392.791579 141.282322 
L 393.605249 142.284858 
L 394.41892 140.391975 
L 395.232591 145.045716 
L 396.046261 137.478434 
L 396.859932 146.594781 
L 397.673602 145.137611 
L 398.487273 147.44203 
L 398.487273 147.44203 
" style="fill:none;stroke:#008000;stroke-dasharray:9.6,2.4,1.5,2.4;stroke-dashoffset:0;stroke-width:1.5;"/>
   </g>
   <g id="line2d_37">
    <path clip-path="url(#p9315b9d4bd)" d="M 73.832727 219.21759 
L 74.646398 187.127751 
L 75.460068 168.813378 
L 76.273739 153.698737 
L 78.714751 130.796415 
L 79.528421 126.434635 
L 80.342092 123.332055 
L 81.155762 117.301061 
L 82.783103 112.636668 
L 83.596774 109.11043 
L 84.410444 106.194638 
L 85.224115 105.220826 
L 86.037785 100.862932 
L 86.851456 100.75743 
L 87.665126 99.408277 
L 88.478797 98.838121 
L 89.292468 97.261456 
L 90.106138 96.691624 
L 90.919809 96.595106 
L 91.733479 94.965696 
L 92.54715 96.20487 
L 93.36082 95.161582 
L 94.174491 93.514173 
L 94.988161 93.837495 
L 95.801832 92.723218 
L 96.615502 93.678424 
L 97.429173 92.745767 
L 98.242843 92.065223 
L 99.056514 94.029051 
L 99.870185 91.400181 
L 100.683855 93.613674 
L 101.497526 92.368268 
L 102.311196 91.533817 
L 103.124867 91.692015 
L 103.938537 91.487 
L 104.752208 90.171114 
L 105.565878 89.146291 
L 106.379549 90.971839 
L 107.193219 91.177124 
L 108.00689 91.112149 
L 108.82056 91.675803 
L 109.634231 91.6567 
L 110.447902 92.274663 
L 111.261572 91.489889 
L 112.075243 92.090008 
L 112.888913 93.44665 
L 113.702584 92.53812 
L 114.516254 94.178902 
L 115.329925 92.352338 
L 116.143595 92.381038 
L 116.957266 91.802944 
L 117.770936 92.089011 
L 118.584607 91.584259 
L 119.398278 90.273296 
L 120.211948 89.783635 
L 121.025619 88.68074 
L 121.839289 89.166715 
L 122.65296 88.271237 
L 123.46663 88.613536 
L 124.280301 88.706546 
L 125.907642 89.502818 
L 126.721312 88.959314 
L 127.534983 88.941987 
L 128.348653 89.871795 
L 129.162324 87.811516 
L 129.975995 86.369992 
L 130.789665 90.833886 
L 131.603336 89.179947 
L 132.417006 91.279662 
L 133.230677 89.22001 
L 134.044347 90.867315 
L 134.858018 89.510791 
L 135.671688 88.722127 
L 136.485359 91.44594 
L 137.299029 88.953468 
L 138.1127 88.229856 
L 138.92637 88.291739 
L 139.740041 87.803888 
L 140.553712 88.145659 
L 141.367382 89.331285 
L 142.181053 89.342589 
L 142.994723 89.756333 
L 143.808394 88.66375 
L 144.622064 89.092492 
L 145.435735 88.087115 
L 146.249405 89.809966 
L 147.063076 87.809491 
L 147.876746 89.308593 
L 149.504087 88.673493 
L 150.317758 89.922996 
L 151.131429 90.393961 
L 152.75877 88.663902 
L 153.57244 89.6732 
L 154.386111 89.341006 
L 155.199781 88.150877 
L 156.013452 89.258033 
L 156.827122 89.289467 
L 157.640793 90.215242 
L 159.268134 89.134618 
L 160.081805 90.892544 
L 160.895475 91.85766 
L 161.709146 90.951563 
L 162.522816 90.516908 
L 163.336487 88.282679 
L 164.150157 90.075417 
L 164.963828 91.199257 
L 165.777498 91.31844 
L 166.591169 89.123377 
L 167.404839 90.107333 
L 168.21851 90.264043 
L 169.03218 90.667945 
L 169.845851 89.706013 
L 170.659522 89.73135 
L 171.473192 89.158725 
L 172.286863 90.041734 
L 173.100533 91.277015 
L 173.914204 91.251569 
L 174.727874 90.560305 
L 175.541545 92.273898 
L 176.355215 89.551728 
L 177.168886 90.025745 
L 177.982556 90.637429 
L 178.796227 89.318864 
L 179.609897 91.61896 
L 180.423568 89.824321 
L 182.050909 91.039717 
L 182.86458 89.965375 
L 183.67825 91.432742 
L 184.491921 91.649394 
L 185.305591 91.040633 
L 186.119262 93.165544 
L 187.746603 92.602219 
L 188.560273 95.048446 
L 189.373944 93.262769 
L 190.187614 91.084951 
L 191.001285 90.871536 
L 191.814956 90.303422 
L 192.628626 92.105387 
L 193.442297 89.481347 
L 194.255967 92.403563 
L 195.069638 90.016738 
L 195.883308 89.318999 
L 196.696979 90.801625 
L 197.510649 91.970763 
L 198.32432 92.239097 
L 199.13799 92.104215 
L 199.951661 93.822526 
L 200.765332 91.307047 
L 201.579002 92.424546 
L 202.392673 90.711482 
L 203.206343 91.043846 
L 204.020014 92.166706 
L 204.833684 91.498628 
L 205.647355 91.788543 
L 206.461025 90.722016 
L 207.274696 92.023479 
L 208.088366 91.098251 
L 208.902037 92.141397 
L 209.715707 92.120211 
L 210.529378 91.41357 
L 211.343049 90.283711 
L 212.156719 91.342314 
L 212.97039 93.332419 
L 213.78406 90.779857 
L 214.597731 91.493903 
L 215.411401 92.989003 
L 216.225072 90.963458 
L 217.038742 93.385147 
L 217.852413 92.562291 
L 219.479754 89.420758 
L 220.293424 89.290826 
L 221.107095 90.782728 
L 221.920766 91.219531 
L 222.734436 90.455806 
L 223.548107 91.092417 
L 224.361777 91.537589 
L 225.175448 88.895775 
L 225.989118 90.689318 
L 226.802789 89.919526 
L 227.616459 89.459877 
L 228.43013 88.681713 
L 229.2438 89.297801 
L 230.057471 89.668502 
L 230.871141 90.576643 
L 231.684812 89.506472 
L 232.498483 90.786825 
L 233.312153 94.177163 
L 234.125824 90.962037 
L 234.939494 93.216929 
L 235.753165 93.864238 
L 236.566835 93.655118 
L 237.380506 93.200694 
L 238.194176 92.456682 
L 239.007847 91.354611 
L 239.821517 92.102084 
L 240.635188 92.636259 
L 241.448859 90.184403 
L 242.262529 90.190833 
L 243.0762 89.501142 
L 243.88987 89.304669 
L 244.703541 88.67345 
L 245.517211 87.559433 
L 246.330882 89.56021 
L 247.144552 90.780315 
L 247.958223 91.339285 
L 248.771893 90.649386 
L 249.585564 90.317766 
L 250.399234 90.328165 
L 251.212905 89.727346 
L 252.026576 91.73967 
L 252.840246 90.275273 
L 253.653917 91.961147 
L 254.467587 91.71353 
L 255.281258 92.956139 
L 256.908599 88.142618 
L 257.722269 89.876975 
L 258.53594 89.156964 
L 259.34961 90.160121 
L 260.163281 89.769484 
L 260.976951 90.308163 
L 261.790622 91.103397 
L 262.604293 91.334481 
L 263.417963 93.009613 
L 264.231634 90.893008 
L 265.045304 92.62191 
L 265.858975 92.648981 
L 266.672645 94.431026 
L 267.486316 94.698101 
L 268.299986 94.630308 
L 269.113657 90.874103 
L 270.740998 93.465324 
L 271.554668 93.261927 
L 272.368339 90.77832 
L 273.18201 92.905003 
L 273.99568 92.015838 
L 274.809351 91.666079 
L 275.623021 92.622986 
L 276.436692 91.404461 
L 277.250362 92.360894 
L 278.064033 93.520234 
L 278.877703 93.935413 
L 279.691374 92.346143 
L 280.505044 94.969297 
L 281.318715 94.503495 
L 282.132386 95.067232 
L 282.946056 94.988053 
L 283.759727 95.273612 
L 284.573397 94.407697 
L 285.387068 94.152945 
L 286.200738 93.325437 
L 287.014409 91.85989 
L 287.828079 91.602111 
L 288.64175 93.033974 
L 289.45542 92.0025 
L 290.269091 91.240779 
L 291.082761 90.097957 
L 291.896432 87.376741 
L 292.710103 89.588767 
L 293.523773 88.964789 
L 294.337444 90.445112 
L 295.151114 89.31212 
L 295.964785 90.863066 
L 296.778455 88.598748 
L 297.592126 91.184234 
L 298.405796 88.849274 
L 299.219467 88.554295 
L 300.033137 91.332177 
L 300.846808 89.160676 
L 301.660478 91.00734 
L 302.474149 90.933602 
L 303.28782 89.843515 
L 304.10149 92.349022 
L 304.915161 89.647021 
L 305.728831 90.947802 
L 306.542502 88.617861 
L 307.356172 90.119975 
L 308.983513 91.783974 
L 309.797184 91.74062 
L 310.610854 90.601972 
L 311.424525 90.658044 
L 312.238195 89.995552 
L 313.051866 90.835806 
L 314.679207 90.577417 
L 315.492878 91.543975 
L 316.306548 91.26177 
L 317.120219 93.067745 
L 317.933889 91.48736 
L 318.74756 93.350145 
L 319.56123 93.583951 
L 320.374901 92.85844 
L 321.188571 92.50247 
L 322.002242 94.198426 
L 322.815913 94.056007 
L 323.629583 94.177435 
L 324.443254 94.487939 
L 325.256924 93.694914 
L 326.070595 93.247536 
L 326.884265 95.662639 
L 327.697936 94.828448 
L 328.511606 94.38072 
L 329.325277 94.459985 
L 330.952618 92.455666 
L 331.766288 91.605331 
L 332.579959 90.941201 
L 334.2073 89.262714 
L 335.020971 90.905349 
L 335.834641 90.57143 
L 336.648312 90.955657 
L 337.461982 91.050511 
L 338.275653 89.260506 
L 339.089323 91.588024 
L 339.902994 89.603818 
L 340.716664 89.421967 
L 341.530335 89.614982 
L 342.344005 91.699537 
L 343.157676 91.603433 
L 343.971347 91.334994 
L 344.785017 93.441235 
L 345.598688 92.668684 
L 346.412358 90.659507 
L 347.226029 89.620382 
L 348.039699 90.053258 
L 348.85337 91.269444 
L 349.66704 91.870012 
L 350.480711 91.657537 
L 351.294381 91.823389 
L 352.921722 90.433826 
L 353.735393 91.086108 
L 354.549064 90.186788 
L 355.362734 92.061484 
L 356.176405 92.67536 
L 356.990075 94.709887 
L 357.803746 94.351715 
L 358.617416 95.119553 
L 359.431087 95.728272 
L 360.244757 94.589196 
L 361.058428 92.55356 
L 361.872098 92.114022 
L 362.685769 91.309666 
L 363.49944 92.74783 
L 364.31311 89.764511 
L 365.126781 94.435032 
L 365.940451 94.191697 
L 366.754122 93.130886 
L 367.567792 92.999675 
L 368.381463 95.033717 
L 369.195133 94.085603 
L 370.008804 93.663185 
L 370.822474 94.62536 
L 372.449815 94.748087 
L 373.263486 96.243993 
L 374.077157 94.020223 
L 374.890827 94.048238 
L 376.518168 92.369797 
L 377.331839 93.665292 
L 378.145509 93.020557 
L 378.95918 93.662946 
L 379.77285 94.103687 
L 380.586521 94.694766 
L 381.400191 92.226495 
L 382.213862 93.575797 
L 383.027532 95.906908 
L 383.841203 93.872301 
L 384.654874 94.41895 
L 385.468544 91.972846 
L 386.282215 92.384697 
L 387.095885 90.305717 
L 387.909556 91.4744 
L 388.723226 90.530365 
L 389.536897 90.531272 
L 390.350567 89.856233 
L 391.164238 90.631073 
L 391.977908 89.89612 
L 392.791579 87.763568 
L 393.605249 92.764884 
L 394.41892 91.156731 
L 395.232591 90.923204 
L 396.046261 92.252016 
L 396.859932 92.961467 
L 397.673602 95.553069 
L 398.487273 91.825174 
L 398.487273 91.825174 
" style="fill:none;stroke:#008000;stroke-dasharray:9.6,2.4,1.5,2.4;stroke-dashoffset:0;stroke-width:1.5;"/>
   </g>
   <g id="line2d_38">
    <path clip-path="url(#p9315b9d4bd)" d="M 73.832727 149.71765 
L 74.646398 138.461564 
L 75.460068 135.730896 
L 76.273739 116.311972 
L 77.087409 117.541299 
L 77.90108 97.806782 
L 78.714751 103.061816 
L 79.528421 87.495648 
L 80.342092 91.586259 
L 81.155762 89.595006 
L 81.969433 78.279259 
L 82.783103 86.945652 
L 83.596774 80.717205 
L 84.410444 83.429384 
L 85.224115 72.448664 
L 86.037785 76.984665 
L 86.851456 77.841135 
L 87.665126 75.627536 
L 88.478797 62.908117 
L 89.292468 72.374784 
L 90.106138 77.841318 
L 90.919809 79.946561 
L 91.733479 70.316914 
L 92.54715 67.132554 
L 93.36082 71.571716 
L 94.174491 68.081969 
L 94.988161 71.70448 
L 95.801832 66.330313 
L 96.615502 72.300718 
L 97.429173 73.561203 
L 98.242843 70.786628 
L 99.056514 64.582244 
L 99.870185 60.92833 
L 100.683855 70.971182 
L 101.497526 72.002312 
L 102.311196 74.359865 
L 103.124867 70.588001 
L 103.938537 73.717576 
L 104.752208 72.690426 
L 105.565878 73.879372 
L 106.379549 74.00537 
L 107.193219 67.724141 
L 108.00689 69.335708 
L 108.82056 71.328386 
L 109.634231 74.126151 
L 110.447902 73.816669 
L 111.261572 69.972299 
L 112.075243 69.722437 
L 112.888913 72.080694 
L 113.702584 59.973631 
L 114.516254 74.34042 
L 115.329925 72.057382 
L 116.143595 69.105796 
L 116.957266 67.534224 
L 117.770936 68.360711 
L 118.584607 70.199858 
L 119.398278 66.723983 
L 120.211948 68.950674 
L 121.025619 70.023008 
L 121.839289 63.122458 
L 122.65296 63.617224 
L 123.46663 67.952312 
L 124.280301 69.015174 
L 125.093971 68.997487 
L 125.907642 69.140879 
L 126.721312 68.535244 
L 127.534983 67.273592 
L 128.348653 70.684451 
L 129.162324 63.050298 
L 129.975995 69.502372 
L 130.789665 66.35979 
L 131.603336 72.671927 
L 132.417006 70.295569 
L 133.230677 64.74307 
L 134.044347 71.341692 
L 134.858018 68.521266 
L 135.671688 67.078435 
L 136.485359 60.735486 
L 137.299029 70.005285 
L 138.1127 70.34002 
L 138.92637 70.973538 
L 139.740041 67.089664 
L 140.553712 60.15242 
L 141.367382 71.049325 
L 142.181053 61.246698 
L 142.994723 66.715805 
L 143.808394 70.46397 
L 144.622064 70.794552 
L 145.435735 63.703096 
L 146.249405 63.751594 
L 147.063076 69.948529 
L 147.876746 64.71897 
L 148.690417 74.118611 
L 149.504087 68.433319 
L 150.317758 67.198432 
L 151.945099 73.396044 
L 152.75877 70.415212 
L 153.57244 68.948233 
L 154.386111 69.789617 
L 155.199781 64.280251 
L 156.013452 69.852799 
L 156.827122 70.046155 
L 157.640793 69.78465 
L 158.454463 68.733441 
L 159.268134 64.754334 
L 160.081805 72.736197 
L 160.895475 69.640183 
L 161.709146 67.19424 
L 162.522816 64.314663 
L 163.336487 65.680513 
L 164.150157 66.823207 
L 164.963828 59.217507 
L 165.777498 70.655062 
L 166.591169 71.220965 
L 167.404839 72.742493 
L 168.21851 67.784947 
L 169.03218 56.106828 
L 169.845851 72.264437 
L 170.659522 62.110667 
L 171.473192 70.288299 
L 172.286863 66.602316 
L 173.100533 70.200594 
L 173.914204 60.810367 
L 174.727874 74.052749 
L 175.541545 67.863186 
L 176.355215 64.468441 
L 177.168886 64.697517 
L 177.982556 69.684068 
L 179.609897 63.458993 
L 180.423568 66.996967 
L 181.237239 67.359635 
L 182.050909 69.810969 
L 182.86458 71.035664 
L 183.67825 71.682856 
L 184.491921 66.33783 
L 185.305591 67.827197 
L 186.119262 64.227438 
L 186.932932 70.104964 
L 187.746603 69.555434 
L 188.560273 76.571168 
L 189.373944 59.129638 
L 190.187614 64.870165 
L 191.001285 67.502021 
L 191.814956 54.859762 
L 192.628626 70.709396 
L 193.442297 73.261994 
L 194.255967 68.722701 
L 195.069638 69.244084 
L 195.883308 66.452448 
L 196.696979 72.100126 
L 197.510649 69.969563 
L 198.32432 66.966644 
L 199.13799 68.269356 
L 199.951661 63.893761 
L 200.765332 71.244064 
L 201.579002 67.312532 
L 202.392673 68.346331 
L 203.206343 68.622585 
L 204.020014 66.433608 
L 204.833684 74.565041 
L 205.647355 66.619634 
L 206.461025 72.082576 
L 207.274696 71.457518 
L 208.088366 65.144383 
L 208.902037 70.40393 
L 209.715707 67.163673 
L 210.529378 71.558333 
L 211.343049 70.036812 
L 212.156719 70.310388 
L 212.97039 70.321762 
L 213.78406 72.750391 
L 214.597731 69.484199 
L 215.411401 66.745498 
L 216.225072 71.914929 
L 217.038742 69.097847 
L 217.852413 70.363867 
L 218.666083 67.173015 
L 219.479754 64.783569 
L 220.293424 71.174186 
L 221.107095 71.432769 
L 221.920766 65.153118 
L 222.734436 62.788392 
L 223.548107 63.045478 
L 224.361777 67.671286 
L 225.175448 64.537341 
L 225.989118 69.751597 
L 226.802789 66.211005 
L 227.616459 66.091471 
L 228.43013 66.730574 
L 229.2438 68.745594 
L 230.057471 65.329345 
L 230.871141 72.389672 
L 231.684812 62.304468 
L 232.498483 64.077597 
L 233.312153 71.222515 
L 234.125824 72.34946 
L 234.939494 73.938081 
L 235.753165 68.218868 
L 236.566835 71.664216 
L 237.380506 71.276033 
L 238.194176 70.00736 
L 239.007847 60.059124 
L 239.821517 67.906663 
L 240.635188 64.075081 
L 241.448859 68.853303 
L 242.262529 63.003468 
L 243.0762 70.015238 
L 243.88987 61.029111 
L 244.703541 68.597408 
L 245.517211 69.049396 
L 246.330882 67.052293 
L 247.144552 64.217694 
L 247.958223 66.3921 
L 248.771893 60.025571 
L 249.585564 73.519335 
L 250.399234 70.035264 
L 251.212905 71.487068 
L 252.026576 69.571032 
L 252.840246 61.663419 
L 253.653917 62.472714 
L 254.467587 59.972766 
L 255.281258 69.474939 
L 256.094928 68.263969 
L 256.908599 71.258185 
L 257.722269 66.814656 
L 258.53594 70.384833 
L 259.34961 63.854734 
L 260.163281 68.048575 
L 260.976951 65.57387 
L 261.790622 68.697477 
L 262.604293 68.489388 
L 263.417963 68.155713 
L 264.231634 63.235333 
L 265.045304 73.936789 
L 265.858975 61.236504 
L 266.672645 72.195564 
L 267.486316 70.553497 
L 268.299986 67.065438 
L 269.113657 64.282248 
L 269.927327 64.283409 
L 270.740998 70.500555 
L 271.554668 72.464151 
L 272.368339 69.718055 
L 273.18201 69.235538 
L 273.99568 53.568 
L 274.809351 73.184938 
L 275.623021 68.350893 
L 276.436692 69.726266 
L 277.250362 67.010431 
L 278.064033 68.206208 
L 278.877703 72.402957 
L 279.691374 70.410613 
L 280.505044 68.916899 
L 282.132386 75.443173 
L 282.946056 68.050434 
L 283.759727 70.880141 
L 284.573397 69.136189 
L 285.387068 68.31953 
L 286.200738 64.479673 
L 287.014409 69.564166 
L 287.828079 69.885587 
L 288.64175 72.244239 
L 289.45542 70.757341 
L 290.269091 66.917276 
L 291.082761 72.096417 
L 291.896432 65.819097 
L 292.710103 69.919222 
L 293.523773 69.879381 
L 294.337444 68.490319 
L 295.151114 64.998324 
L 295.964785 67.002327 
L 296.778455 65.576874 
L 297.592126 65.84142 
L 298.405796 68.757043 
L 299.219467 57.912456 
L 300.033137 70.089091 
L 300.846808 70.554441 
L 301.660478 71.729078 
L 302.474149 67.879454 
L 303.28782 60.98806 
L 304.10149 72.77515 
L 304.915161 68.713278 
L 305.728831 71.571045 
L 306.542502 67.799094 
L 307.356172 60.501374 
L 308.169843 73.083263 
L 308.983513 63.479886 
L 309.797184 62.14658 
L 310.610854 62.018581 
L 311.424525 67.140902 
L 312.238195 65.345939 
L 313.051866 62.963434 
L 313.865537 70.508145 
L 314.679207 68.664939 
L 315.492878 71.570976 
L 316.306548 68.97693 
L 317.120219 67.491391 
L 317.933889 69.123461 
L 318.74756 66.319981 
L 319.56123 70.139427 
L 321.188571 67.722513 
L 322.002242 67.671951 
L 322.815913 73.712795 
L 323.629583 70.180682 
L 324.443254 69.684537 
L 325.256924 67.192324 
L 326.070595 73.722473 
L 326.884265 72.953541 
L 327.697936 72.469405 
L 328.511606 67.358495 
L 329.325277 71.955555 
L 330.138947 73.174069 
L 330.952618 67.002831 
L 331.766288 71.926267 
L 332.579959 69.502691 
L 333.39363 59.462549 
L 334.2073 64.893557 
L 335.020971 63.572789 
L 335.834641 67.346092 
L 336.648312 67.19792 
L 337.461982 70.229409 
L 338.275653 63.818498 
L 339.089323 69.212763 
L 339.902994 63.500312 
L 340.716664 65.62481 
L 341.530335 70.184588 
L 342.344005 68.587435 
L 343.157676 63.756477 
L 343.971347 73.029311 
L 344.785017 72.228183 
L 345.598688 70.782137 
L 346.412358 71.948228 
L 347.226029 68.705094 
L 348.039699 64.95367 
L 349.66704 67.474612 
L 350.480711 71.291956 
L 351.294381 72.559504 
L 352.108052 62.428696 
L 352.921722 68.133452 
L 353.735393 68.380885 
L 354.549064 69.389529 
L 355.362734 70.21158 
L 356.176405 69.644574 
L 356.990075 62.822801 
L 357.803746 65.723803 
L 358.617416 69.186624 
L 359.431087 69.636972 
L 360.244757 74.969497 
L 361.058428 70.318007 
L 361.872098 68.271727 
L 362.685769 70.996831 
L 363.49944 70.432317 
L 364.31311 71.45626 
L 365.126781 73.790586 
L 365.940451 67.380732 
L 366.754122 70.074255 
L 367.567792 69.491419 
L 369.195133 66.0063 
L 370.008804 67.741083 
L 370.822474 66.88734 
L 371.636145 67.624733 
L 372.449815 66.602613 
L 374.077157 68.635334 
L 374.890827 67.549138 
L 375.704498 68.548611 
L 376.518168 62.101282 
L 377.331839 66.801137 
L 378.145509 74.318695 
L 378.95918 70.144301 
L 379.77285 69.433627 
L 380.586521 71.50288 
L 381.400191 59.958506 
L 382.213862 68.949263 
L 383.027532 62.869308 
L 383.841203 73.218895 
L 384.654874 74.191792 
L 385.468544 71.795434 
L 386.282215 59.679254 
L 387.095885 65.414637 
L 387.909556 66.756763 
L 388.723226 69.308155 
L 389.536897 64.243937 
L 390.350567 63.997526 
L 391.164238 66.92612 
L 391.977908 66.827594 
L 392.791579 71.632279 
L 393.605249 72.111576 
L 394.41892 61.865827 
L 395.232591 69.570138 
L 396.046261 66.353959 
L 396.859932 70.385235 
L 397.673602 72.839638 
L 398.487273 57.12211 
L 398.487273 57.12211 
" style="fill:none;stroke:#ff0000;stroke-linecap:square;stroke-width:1.5;"/>
   </g>
   <g id="patch_3">
    <path d="M 57.6 307.584 
L 57.6 41.472 
" style="fill:none;stroke:#000000;stroke-linecap:square;stroke-linejoin:miter;stroke-width:0.8;"/>
   </g>
   <g id="patch_4">
    <path d="M 414.72 307.584 
L 414.72 41.472 
" style="fill:none;stroke:#000000;stroke-linecap:square;stroke-linejoin:miter;stroke-width:0.8;"/>
   </g>
   <g id="patch_5">
    <path d="M 57.6 307.584 
L 414.72 307.584 
" style="fill:none;stroke:#000000;stroke-linecap:square;stroke-linejoin:miter;stroke-width:0.8;"/>
   </g>
   <g id="patch_6">
    <path d="M 57.6 41.472 
L 414.72 41.472 
" style="fill:none;stroke:#000000;stroke-linecap:square;stroke-linejoin:miter;stroke-width:0.8;"/>
   </g>
   <g id="text_20">
    <!-- Population's average and best fitness -->
    <defs>
     <path d="M 19.671875 64.796875 
L 19.671875 37.40625 
L 32.078125 37.40625 
Q 38.96875 37.40625 42.71875 40.96875 
Q 46.484375 44.53125 46.484375 51.125 
Q 46.484375 57.671875 42.71875 61.234375 
Q 38.96875 64.796875 32.078125 64.796875 
z
M 9.8125 72.90625 
L 32.078125 72.90625 
Q 44.34375 72.90625 50.609375 67.359375 
Q 56.890625 61.8125 56.890625 51.125 
Q 56.890625 40.328125 50.609375 34.8125 
Q 44.34375 29.296875 32.078125 29.296875 
L 19.671875 29.296875 
L 19.671875 0 
L 9.8125 0 
z
" id="DejaVuSans-80"/>
     <path d="M 18.109375 8.203125 
L 18.109375 -20.796875 
L 9.078125 -20.796875 
L 9.078125 54.6875 
L 18.109375 54.6875 
L 18.109375 46.390625 
Q 20.953125 51.265625 25.265625 53.625 
Q 29.59375 56 35.59375 56 
Q 45.5625 56 51.78125 48.09375 
Q 58.015625 40.1875 58.015625 27.296875 
Q 58.015625 14.40625 51.78125 6.484375 
Q 45.5625 -1.421875 35.59375 -1.421875 
Q 29.59375 -1.421875 25.265625 0.953125 
Q 20.953125 3.328125 18.109375 8.203125 
z
M 48.6875 27.296875 
Q 48.6875 37.203125 44.609375 42.84375 
Q 40.53125 48.484375 33.40625 48.484375 
Q 26.265625 48.484375 22.1875 42.84375 
Q 18.109375 37.203125 18.109375 27.296875 
Q 18.109375 17.390625 22.1875 11.75 
Q 26.265625 6.109375 33.40625 6.109375 
Q 40.53125 6.109375 44.609375 11.75 
Q 48.6875 17.390625 48.6875 27.296875 
z
" id="DejaVuSans-112"/>
     <path d="M 8.5 21.578125 
L 8.5 54.6875 
L 17.484375 54.6875 
L 17.484375 21.921875 
Q 17.484375 14.15625 20.5 10.265625 
Q 23.53125 6.390625 29.59375 6.390625 
Q 36.859375 6.390625 41.078125 11.03125 
Q 45.3125 15.671875 45.3125 23.6875 
L 45.3125 54.6875 
L 54.296875 54.6875 
L 54.296875 0 
L 45.3125 0 
L 45.3125 8.40625 
Q 42.046875 3.421875 37.71875 1 
Q 33.40625 -1.421875 27.6875 -1.421875 
Q 18.265625 -1.421875 13.375 4.4375 
Q 8.5 10.296875 8.5 21.578125 
z
M 31.109375 56 
z
" id="DejaVuSans-117"/>
     <path d="M 9.421875 75.984375 
L 18.40625 75.984375 
L 18.40625 0 
L 9.421875 0 
z
" id="DejaVuSans-108"/>
     <path d="M 17.921875 72.90625 
L 17.921875 45.796875 
L 9.625 45.796875 
L 9.625 72.90625 
z
" id="DejaVuSans-39"/>
     <path id="DejaVuSans-32"/>
     <path d="M 2.984375 54.6875 
L 12.5 54.6875 
L 29.59375 8.796875 
L 46.6875 54.6875 
L 56.203125 54.6875 
L 35.6875 0 
L 23.484375 0 
z
" id="DejaVuSans-118"/>
     <path d="M 45.40625 27.984375 
Q 45.40625 37.75 41.375 43.109375 
Q 37.359375 48.484375 30.078125 48.484375 
Q 22.859375 48.484375 18.828125 43.109375 
Q 14.796875 37.75 14.796875 27.984375 
Q 14.796875 18.265625 18.828125 12.890625 
Q 22.859375 7.515625 30.078125 7.515625 
Q 37.359375 7.515625 41.375 12.890625 
Q 45.40625 18.265625 45.40625 27.984375 
z
M 54.390625 6.78125 
Q 54.390625 -7.171875 48.1875 -13.984375 
Q 42 -20.796875 29.203125 -20.796875 
Q 24.46875 -20.796875 20.265625 -20.09375 
Q 16.0625 -19.390625 12.109375 -17.921875 
L 12.109375 -9.1875 
Q 16.0625 -11.328125 19.921875 -12.34375 
Q 23.78125 -13.375 27.78125 -13.375 
Q 36.625 -13.375 41.015625 -8.765625 
Q 45.40625 -4.15625 45.40625 5.171875 
L 45.40625 9.625 
Q 42.625 4.78125 38.28125 2.390625 
Q 33.9375 0 27.875 0 
Q 17.828125 0 11.671875 7.65625 
Q 5.515625 15.328125 5.515625 27.984375 
Q 5.515625 40.671875 11.671875 48.328125 
Q 17.828125 56 27.875 56 
Q 33.9375 56 38.28125 53.609375 
Q 42.625 51.21875 45.40625 46.390625 
L 45.40625 54.6875 
L 54.390625 54.6875 
z
" id="DejaVuSans-103"/>
     <path d="M 45.40625 46.390625 
L 45.40625 75.984375 
L 54.390625 75.984375 
L 54.390625 0 
L 45.40625 0 
L 45.40625 8.203125 
Q 42.578125 3.328125 38.25 0.953125 
Q 33.9375 -1.421875 27.875 -1.421875 
Q 17.96875 -1.421875 11.734375 6.484375 
Q 5.515625 14.40625 5.515625 27.296875 
Q 5.515625 40.1875 11.734375 48.09375 
Q 17.96875 56 27.875 56 
Q 33.9375 56 38.25 53.625 
Q 42.578125 51.265625 45.40625 46.390625 
z
M 14.796875 27.296875 
Q 14.796875 17.390625 18.875 11.75 
Q 22.953125 6.109375 30.078125 6.109375 
Q 37.203125 6.109375 41.296875 11.75 
Q 45.40625 17.390625 45.40625 27.296875 
Q 45.40625 37.203125 41.296875 42.84375 
Q 37.203125 48.484375 30.078125 48.484375 
Q 22.953125 48.484375 18.875 42.84375 
Q 14.796875 37.203125 14.796875 27.296875 
z
" id="DejaVuSans-100"/>
     <path d="M 48.6875 27.296875 
Q 48.6875 37.203125 44.609375 42.84375 
Q 40.53125 48.484375 33.40625 48.484375 
Q 26.265625 48.484375 22.1875 42.84375 
Q 18.109375 37.203125 18.109375 27.296875 
Q 18.109375 17.390625 22.1875 11.75 
Q 26.265625 6.109375 33.40625 6.109375 
Q 40.53125 6.109375 44.609375 11.75 
Q 48.6875 17.390625 48.6875 27.296875 
z
M 18.109375 46.390625 
Q 20.953125 51.265625 25.265625 53.625 
Q 29.59375 56 35.59375 56 
Q 45.5625 56 51.78125 48.09375 
Q 58.015625 40.1875 58.015625 27.296875 
Q 58.015625 14.40625 51.78125 6.484375 
Q 45.5625 -1.421875 35.59375 -1.421875 
Q 29.59375 -1.421875 25.265625 0.953125 
Q 20.953125 3.328125 18.109375 8.203125 
L 18.109375 0 
L 9.078125 0 
L 9.078125 75.984375 
L 18.109375 75.984375 
z
" id="DejaVuSans-98"/>
     <path d="M 37.109375 75.984375 
L 37.109375 68.5 
L 28.515625 68.5 
Q 23.6875 68.5 21.796875 66.546875 
Q 19.921875 64.59375 19.921875 59.515625 
L 19.921875 54.6875 
L 34.71875 54.6875 
L 34.71875 47.703125 
L 19.921875 47.703125 
L 19.921875 0 
L 10.890625 0 
L 10.890625 47.703125 
L 2.296875 47.703125 
L 2.296875 54.6875 
L 10.890625 54.6875 
L 10.890625 58.5 
Q 10.890625 67.625 15.140625 71.796875 
Q 19.390625 75.984375 28.609375 75.984375 
z
" id="DejaVuSans-102"/>
    </defs>
    <g transform="translate(123.315 35.472)scale(0.12 -0.12)">
     <use xlink:href="#DejaVuSans-80"/>
     <use x="60.255859" xlink:href="#DejaVuSans-111"/>
     <use x="121.4375" xlink:href="#DejaVuSans-112"/>
     <use x="184.914062" xlink:href="#DejaVuSans-117"/>
     <use x="248.292969" xlink:href="#DejaVuSans-108"/>
     <use x="276.076172" xlink:href="#DejaVuSans-97"/>
     <use x="337.355469" xlink:href="#DejaVuSans-116"/>
     <use x="376.564453" xlink:href="#DejaVuSans-105"/>
     <use x="404.347656" xlink:href="#DejaVuSans-111"/>
     <use x="465.529297" xlink:href="#DejaVuSans-110"/>
     <use x="528.908203" xlink:href="#DejaVuSans-39"/>
     <use x="556.398438" xlink:href="#DejaVuSans-115"/>
     <use x="608.498047" xlink:href="#DejaVuSans-32"/>
     <use x="640.285156" xlink:href="#DejaVuSans-97"/>
     <use x="701.564453" xlink:href="#DejaVuSans-118"/>
     <use x="760.744141" xlink:href="#DejaVuSans-101"/>
     <use x="822.267578" xlink:href="#DejaVuSans-114"/>
     <use x="863.380859" xlink:href="#DejaVuSans-97"/>
     <use x="924.660156" xlink:href="#DejaVuSans-103"/>
     <use x="988.136719" xlink:href="#DejaVuSans-101"/>
     <use x="1049.660156" xlink:href="#DejaVuSans-32"/>
     <use x="1081.447266" xlink:href="#DejaVuSans-97"/>
     <use x="1142.726562" xlink:href="#DejaVuSans-110"/>
     <use x="1206.105469" xlink:href="#DejaVuSans-100"/>
     <use x="1269.582031" xlink:href="#DejaVuSans-32"/>
     <use x="1301.369141" xlink:href="#DejaVuSans-98"/>
     <use x="1364.845703" xlink:href="#DejaVuSans-101"/>
     <use x="1426.369141" xlink:href="#DejaVuSans-115"/>
     <use x="1478.46875" xlink:href="#DejaVuSans-116"/>
     <use x="1517.677734" xlink:href="#DejaVuSans-32"/>
     <use x="1549.464844" xlink:href="#DejaVuSans-102"/>
     <use x="1584.669922" xlink:href="#DejaVuSans-105"/>
     <use x="1612.453125" xlink:href="#DejaVuSans-116"/>
     <use x="1651.662109" xlink:href="#DejaVuSans-110"/>
     <use x="1715.041016" xlink:href="#DejaVuSans-101"/>
     <use x="1776.564453" xlink:href="#DejaVuSans-115"/>
     <use x="1828.664062" xlink:href="#DejaVuSans-115"/>
    </g>
   </g>
   <g id="legend_1">
    <g id="patch_7">
     <path d="M 334.779375 302.584 
L 407.72 302.584 
Q 409.72 302.584 409.72 300.584 
L 409.72 242.8715 
Q 409.72 240.8715 407.72 240.8715 
L 334.779375 240.8715 
Q 332.779375 240.8715 332.779375 242.8715 
L 332.779375 300.584 
Q 332.779375 302.584 334.779375 302.584 
z
" style="fill:#ffffff;opacity:0.8;stroke:#cccccc;stroke-linejoin:miter;"/>
    </g>
    <g id="line2d_39">
     <path d="M 336.779375 248.969937 
L 356.779375 248.969937 
" style="fill:none;stroke:#0000ff;stroke-linecap:square;stroke-width:1.5;"/>
    </g>
    <g id="line2d_40"/>
    <g id="text_21">
     <!-- average -->
     <g transform="translate(364.779375 252.469937)scale(0.1 -0.1)">
      <use xlink:href="#DejaVuSans-97"/>
      <use x="61.279297" xlink:href="#DejaVuSans-118"/>
      <use x="120.458984" xlink:href="#DejaVuSans-101"/>
      <use x="181.982422" xlink:href="#DejaVuSans-114"/>
      <use x="223.095703" xlink:href="#DejaVuSans-97"/>
      <use x="284.375" xlink:href="#DejaVuSans-103"/>
      <use x="347.851562" xlink:href="#DejaVuSans-101"/>
     </g>
    </g>
    <g id="line2d_41">
     <path d="M 336.779375 263.648062 
L 356.779375 263.648062 
" style="fill:none;stroke:#008000;stroke-dasharray:9.6,2.4,1.5,2.4;stroke-dashoffset:0;stroke-width:1.5;"/>
    </g>
    <g id="line2d_42"/>
    <g id="text_22">
     <!-- -1 sd -->
     <defs>
      <path d="M 4.890625 31.390625 
L 31.203125 31.390625 
L 31.203125 23.390625 
L 4.890625 23.390625 
z
" id="DejaVuSans-45"/>
     </defs>
     <g transform="translate(364.779375 267.148062)scale(0.1 -0.1)">
      <use xlink:href="#DejaVuSans-45"/>
      <use x="36.083984" xlink:href="#DejaVuSans-49"/>
      <use x="99.707031" xlink:href="#DejaVuSans-32"/>
      <use x="131.494141" xlink:href="#DejaVuSans-115"/>
      <use x="183.59375" xlink:href="#DejaVuSans-100"/>
     </g>
    </g>
    <g id="line2d_43">
     <path d="M 336.779375 278.326187 
L 356.779375 278.326187 
" style="fill:none;stroke:#008000;stroke-dasharray:9.6,2.4,1.5,2.4;stroke-dashoffset:0;stroke-width:1.5;"/>
    </g>
    <g id="line2d_44"/>
    <g id="text_23">
     <!-- +1 sd -->
     <defs>
      <path d="M 46 62.703125 
L 46 35.5 
L 73.1875 35.5 
L 73.1875 27.203125 
L 46 27.203125 
L 46 0 
L 37.796875 0 
L 37.796875 27.203125 
L 10.59375 27.203125 
L 10.59375 35.5 
L 37.796875 35.5 
L 37.796875 62.703125 
z
" id="DejaVuSans-43"/>
     </defs>
     <g transform="translate(364.779375 281.826187)scale(0.1 -0.1)">
      <use xlink:href="#DejaVuSans-43"/>
      <use x="83.789062" xlink:href="#DejaVuSans-49"/>
      <use x="147.412109" xlink:href="#DejaVuSans-32"/>
      <use x="179.199219" xlink:href="#DejaVuSans-115"/>
      <use x="231.298828" xlink:href="#DejaVuSans-100"/>
     </g>
    </g>
    <g id="line2d_45">
     <path d="M 336.779375 293.004312 
L 356.779375 293.004312 
" style="fill:none;stroke:#ff0000;stroke-linecap:square;stroke-width:1.5;"/>
    </g>
    <g id="line2d_46"/>
    <g id="text_24">
     <!-- best -->
     <g transform="translate(364.779375 296.504312)scale(0.1 -0.1)">
      <use xlink:href="#DejaVuSans-98"/>
      <use x="63.476562" xlink:href="#DejaVuSans-101"/>
      <use x="125" xlink:href="#DejaVuSans-115"/>
      <use x="177.099609" xlink:href="#DejaVuSans-116"/>
     </g>
    </g>
   </g>
  </g>
 </g>
 <defs>
  <clipPath id="p9315b9d4bd">
   <rect height="266.112" width="357.12" x="57.6" y="41.472"/>
  </clipPath>
 </defs>
</svg>
